<svg xmlns="http://www.w3.org/2000/svg" id="svg6" data-name="Layer 1" version="1.1" viewBox="0 0 90 90"><metadata id="metadata12"/><title id="title2">Doubleboiler</title><g id="text4" aria-label="C" transform="translate(0 12.5)"><path id="path14" d="m55.596 43.599q-1.8115 0.93994-3.7769 1.4185-1.9653 0.47852-4.1016 0.47852-6.3745 0-10.1-3.5547-3.7256-3.5718-3.7256-9.6729 0-6.1182 3.7256-9.6729 3.7256-3.5718 10.1-3.5718 2.1362 0 4.1016 0.47852t3.7769 1.4185v5.2808q-1.8286-1.2476-3.606-1.8286-1.7773-0.58106-3.7427-0.58106-3.5205 0-5.5371 2.2559-2.0166 2.2559-2.0166 6.2207 0 3.9478 2.0166 6.2036 2.0166 2.2559 5.5371 2.2559 1.9653 0 3.7427-0.58106 1.7773-0.58105 3.606-1.8286z"/></g></svg>